<svg width="64" height="60" viewBox="0 0 64 60" fill="none" xmlns="http://www.w3.org/2000/svg">
<g opacity="0.9">
<path d="M42.1239 3.35136C33.6447 0.395884 22.2365 9.93101 16.6429 24.6486C11.0492 39.3663 13.3884 53.6932 21.8675 56.6486C30.3466 59.6041 41.7549 50.069 47.3485 35.3514C52.9421 20.6337 50.603 6.30683 42.1239 3.35136Z" stroke="white" stroke-width="3.81202"/>
<path d="M51.0109 51.7313C57.9231 46.1768 55.0045 31.9478 44.4919 19.9498C33.9793 7.95191 19.8536 2.72845 12.9414 8.28292C6.02914 13.8374 8.9478 28.0664 19.4604 40.0644C29.973 52.0623 44.0986 57.2857 51.0109 51.7313Z" stroke="white" stroke-width="3.81202"/>
<path d="M2.83707 34.9401C4.40395 43.45 18.7308 48.144 34.8371 45.4242C50.9433 42.7045 62.7298 33.6011 61.1629 25.0912C59.596 16.5812 45.2691 11.8873 29.1629 14.607C13.0567 17.3267 1.27019 26.4302 2.83707 34.9401Z" stroke="white" stroke-width="3.81202"/>
</g>
</svg>
